<svg xmlns="http://www.w3.org/2000/svg" viewBox="0 0 64 64" fill="none">
  <rect width="64" height="64" rx="18" fill="#14323B"/>
  <circle cx="32" cy="35" r="4" fill="#65D4E5" fill-opacity=".18"/>
  <path d="M32 49V35M32 35L22 25M32 35L42 25M32 35V19" stroke="#65D4E5" stroke-linecap="round" stroke-linejoin="round" stroke-width="4"/>
  <path d="M32 19C32 13.9 35.9 9.8 40.8 9.8C40.8 14.9 36.9 19 32 19Z" fill="#65D4E5" fill-opacity=".24"/>
  <path d="M22 25C22 20.2 18.2 16.3 13.5 16.3C13.5 21.1 17.3 25 22 25Z" fill="#65D4E5" fill-opacity=".16"/>
  <path d="M42 25C42 20.2 45.8 16.3 50.5 16.3C50.5 21.1 46.7 25 42 25Z" fill="#65D4E5" fill-opacity=".16"/>
  <circle cx="32" cy="18.8" r="2.8" stroke="#65D4E5" stroke-opacity=".82" stroke-width="2.4"/>
  <circle cx="22" cy="25" r="2.8" stroke="#65D4E5" stroke-opacity=".68" stroke-width="2.4"/>
  <circle cx="42" cy="25" r="2.8" stroke="#65D4E5" stroke-opacity=".68" stroke-width="2.4"/>
</svg>
